<?xml version="1.0" standalone="no"?>
<!DOCTYPE svg PUBLIC "-//W3C//DTD SVG 20010904//EN"
 "http://www.w3.org/TR/2001/REC-SVG-20010904/DTD/svg10.dtd">
<svg version="1.0" xmlns="http://www.w3.org/2000/svg"
 width="400.000000pt" height="400.000000pt" viewBox="0 0 400.000000 400.000000"
 preserveAspectRatio="xMidYMid meet">

<g transform="translate(0.000000,400.000000) scale(0.100000,-0.100000)"
fill="#000000" stroke="none">
<path d="M1750 3970 c-224 -31 -430 -96 -640 -202 -392 -197 -681 -486 -878
-878 -87 -172 -139 -320 -179 -509 -26 -118 -27 -142 -27 -386 0 -244 1 -268
27 -386 40 -189 92 -337 179 -509 197 -392 486 -681 878 -878 172 -87 320
-139 509 -179 118 -26 142 -27 386 -27 244 0 268 1 386 27 189 40 337 92 509
179 392 197 681 486 878 878 87 172 139 320 179 509 26 118 27 142 27 386 0
244 -1 268 -27 386 -40 189 -92 337 -179 509 -197 392 -486 681 -878 878 -171
86 -321 139 -504 178 -106 23 -150 26 -351 29 -126 2 -259 0 -295 -5z m318
-1093 c12 -11 113 -178 224 -371 111 -193 254 -441 318 -551 64 -111 122 -216
128 -234 43 -124 -33 -268 -162 -306 -73 -22 -1079 -22 -1152 0 -129 38 -205
182 -162 306 6 19 48 97 93 174 45 77 187 322 315 545 128 223 244 417 258
432 39 42 96 44 140 5z"/>
<path d="M1836 2387 c-38 -72 -144 -265 -234 -427 -91 -162 -164 -305 -164
-319 0 -47 19 -51 254 -51 l218 0 0 465 c0 256 -1 465 -2 465 -2 0 -34 -60
-72 -133z"/>
<path d="M2090 2052 l0 -462 218 0 c236 0 255 4 255 52 0 13 -67 144 -148 289
-82 145 -184 332 -228 414 -43 83 -83 154 -88 160 -5 5 -9 -181 -9 -453z"/>
</g>
</svg>
